<svg width="24" height="25" viewBox="0 0 24 25" fill="none" xmlns="http://www.w3.org/2000/svg">
<g filter="url(#filter0_d_347_44)">
<path d="M20 8.51286C20 12.9753 16.4183 16.5929 12 16.5929C7.58172 16.5929 4 12.9753 4 8.51286C4 4.0504 7.58172 0.432861 12 0.432861C16.4183 0.432861 20 4.0504 20 8.51286Z" fill="black" fill-opacity="0.2" shape-rendering="crispEdges"/>
<path d="M19 8.51286C19 12.4324 15.8566 15.5929 12 15.5929C8.14336 15.5929 5 12.4324 5 8.51286C5 4.59328 8.14336 1.43286 12 1.43286C15.8566 1.43286 19 4.59328 19 8.51286Z" stroke="#D9D9D9" stroke-width="2" shape-rendering="crispEdges"/>
</g>
<path d="M8.396 8.55244C8.396 7.81644 8.496 7.17644 8.696 6.63244C8.896 6.08844 9.164 5.64044 9.5 5.28844C9.844 4.92844 10.232 4.66044 10.664 4.48444C11.096 4.30844 11.544 4.22044 12.008 4.22044C12.456 4.22044 12.824 4.26844 13.112 4.36444C13.408 4.46044 13.62 4.57244 13.748 4.70044V5.73244H13.556C13.42 5.57244 13.228 5.44844 12.98 5.36044C12.732 5.26444 12.424 5.21644 12.056 5.21644C11.56 5.21644 11.116 5.34444 10.724 5.60044C10.34 5.85644 10.036 6.23244 9.812 6.72844C9.596 7.22444 9.488 7.83244 9.488 8.55244C9.488 9.27244 9.596 9.88044 9.812 10.3764C10.036 10.8724 10.34 11.2484 10.724 11.5044C11.108 11.7604 11.548 11.8884 12.044 11.8884C12.412 11.8884 12.72 11.8444 12.968 11.7564C13.224 11.6604 13.42 11.5324 13.556 11.3724H13.748V12.4044C13.62 12.5244 13.408 12.6364 13.112 12.7404C12.824 12.8364 12.448 12.8844 11.984 12.8844C11.512 12.8844 11.06 12.7964 10.628 12.6204C10.196 12.4444 9.812 12.1804 9.476 11.8284C9.14 11.4684 8.876 11.0164 8.684 10.4724C8.492 9.92844 8.396 9.28844 8.396 8.55244Z" fill="white"/>
<defs>
<filter id="filter0_d_347_44" x="0" y="0.432861" width="24" height="24.1599" filterUnits="userSpaceOnUse" color-interpolation-filters="sRGB">
<feFlood flood-opacity="0" result="BackgroundImageFix"/>
<feColorMatrix in="SourceAlpha" type="matrix" values="0 0 0 0 0 0 0 0 0 0 0 0 0 0 0 0 0 0 127 0" result="hardAlpha"/>
<feOffset dy="4"/>
<feGaussianBlur stdDeviation="2"/>
<feComposite in2="hardAlpha" operator="out"/>
<feColorMatrix type="matrix" values="0 0 0 0 0 0 0 0 0 0 0 0 0 0 0 0 0 0 0.25 0"/>
<feBlend mode="normal" in2="BackgroundImageFix" result="effect1_dropShadow_347_44"/>
<feBlend mode="normal" in="SourceGraphic" in2="effect1_dropShadow_347_44" result="shape"/>
</filter>
</defs>
</svg>
