<svg width="24" height="24" viewBox="0 0 24 24" fill="none" xmlns="http://www.w3.org/2000/svg">
<g filter="url(#filter0_d_347_44)">
<path d="M20 8C20 12.4183 16.4183 16 12 16C7.58172 16 4 12.4183 4 8C4 3.58172 7.58172 0 12 0C16.4183 0 20 3.58172 20 8Z" fill="black" fill-opacity="0.2" shape-rendering="crispEdges"/>
<path d="M19.5 8C19.5 12.1421 16.1421 15.5 12 15.5C7.85786 15.5 4.5 12.1421 4.5 8C4.5 3.85786 7.85786 0.5 12 0.5C16.1421 0.5 19.5 3.85786 19.5 8Z" stroke="#D9D9D9" shape-rendering="crispEdges"/>
</g>
<path d="M15.4063 6.5H14.4375C14.3802 6.22135 14.2799 5.97656 14.1367 5.76562C13.9961 5.55469 13.8242 5.3776 13.6211 5.23438C13.4206 5.08854 13.1979 4.97917 12.9531 4.90625C12.7083 4.83333 12.4531 4.79687 12.1875 4.79687C11.7031 4.79687 11.2643 4.91927 10.8711 5.16406C10.4805 5.40885 10.1693 5.76953 9.9375 6.24609C9.70833 6.72266 9.59375 7.30729 9.59375 8C9.59375 8.69271 9.70833 9.27734 9.9375 9.75391C10.1693 10.2305 10.4805 10.5911 10.8711 10.8359C11.2643 11.0807 11.7031 11.2031 12.1875 11.2031C12.4531 11.2031 12.7083 11.1667 12.9531 11.0937C13.1979 11.0208 13.4206 10.9128 13.6211 10.7695C13.8242 10.6237 13.9961 10.4453 14.1367 10.2344C14.2799 10.0208 14.3802 9.77604 14.4375 9.5H15.4063C15.3333 9.90885 15.2005 10.2747 15.0078 10.5977C14.8151 10.9206 14.5755 11.1953 14.2891 11.4219C14.0026 11.6458 13.681 11.8164 13.3242 11.9336C12.9701 12.0508 12.5911 12.1094 12.1875 12.1094C11.5052 12.1094 10.8984 11.9427 10.3672 11.6094C9.83594 11.276 9.41797 10.8021 9.11328 10.1875C8.80859 9.57292 8.65625 8.84375 8.65625 8C8.65625 7.15625 8.80859 6.42708 9.11328 5.8125C9.41797 5.19792 9.83594 4.72396 10.3672 4.39062C10.8984 4.05729 11.5052 3.89062 12.1875 3.89062C12.5911 3.89062 12.9701 3.94922 13.3242 4.06641C13.681 4.18359 14.0026 4.35547 14.2891 4.58203C14.5755 4.80599 14.8151 5.07943 15.0078 5.40234C15.2005 5.72266 15.3333 6.08854 15.4063 6.5Z" fill="white"/>
<defs>
<filter id="filter0_d_347_44" x="0" y="0" width="24" height="24" filterUnits="userSpaceOnUse" color-interpolation-filters="sRGB">
<feFlood flood-opacity="0" result="BackgroundImageFix"/>
<feColorMatrix in="SourceAlpha" type="matrix" values="0 0 0 0 0 0 0 0 0 0 0 0 0 0 0 0 0 0 127 0" result="hardAlpha"/>
<feOffset dy="4"/>
<feGaussianBlur stdDeviation="2"/>
<feComposite in2="hardAlpha" operator="out"/>
<feColorMatrix type="matrix" values="0 0 0 0 0 0 0 0 0 0 0 0 0 0 0 0 0 0 0.25 0"/>
<feBlend mode="normal" in2="BackgroundImageFix" result="effect1_dropShadow_347_44"/>
<feBlend mode="normal" in="SourceGraphic" in2="effect1_dropShadow_347_44" result="shape"/>
</filter>
</defs>
</svg>
