<svg width="307" height="297" viewBox="0 0 307 297" fill="none" xmlns="http://www.w3.org/2000/svg">
<ellipse cx="153.5" cy="148.5" rx="153.5" ry="148.5" fill="#030405"/>
<path d="M80.5 93.75L136.232 135.837L136.251 135.852C142.439 140.39 145.535 142.661 148.926 143.538C151.923 144.313 155.074 144.313 158.071 143.538C161.465 142.66 164.57 140.383 170.77 135.837C170.77 135.837 206.517 108.404 226.5 93.75M71.375 183.177V113.827C71.375 103.606 71.375 98.4915 73.3641 94.5876C75.1138 91.1537 77.9037 88.3638 81.3376 86.6141C85.2415 84.625 90.3558 84.625 100.577 84.625H206.427C216.648 84.625 221.751 84.625 225.655 86.6141C229.089 88.3638 231.888 91.1537 233.638 94.5876C235.625 98.4877 235.625 103.596 235.625 113.797V183.208C235.625 193.409 235.625 198.509 233.638 202.409C231.888 205.843 229.089 208.638 225.655 210.388C221.755 212.375 216.654 212.375 206.453 212.375H100.547C90.3458 212.375 85.2377 212.375 81.3376 210.388C77.9037 208.638 75.1138 205.843 73.3641 202.409C71.375 198.506 71.375 193.398 71.375 183.177Z" stroke="white" stroke-width="2" stroke-linecap="round" stroke-linejoin="round"/>
</svg>
